HIERARCHY
ROOT joint_Root
{
	OFFSET 0.0 0.0 0.0
	CHANNELS 6 Xposition Yposition Zposition Zrotation Xrotation Yrotation 
	JOINT Hips
	{
		OFFSET -0.726466 93.3139 -2.00062
		CHANNELS 6 Xposition Yposition Zposition Zrotation Xrotation Yrotation 
		JOINT Spine
		{
			OFFSET 15.7357 0.0 0.0
			CHANNELS 6 Xposition Yposition Zposition Zrotation Xrotation Yrotation 
			JOINT Chest
			{
				OFFSET 8.98455 -0.406207 0.0
				CHANNELS 6 Xposition Yposition Zposition Zrotation Xrotation Yrotation 
				JOINT Neck
				{
					OFFSET 16.3773 0.0 0.0
					CHANNELS 6 Xposition Yposition Zposition Zrotation Xrotation Yrotation 
					JOINT Head
					{
						OFFSET 6.45672 0.0 0.0
						CHANNELS 6 Xposition Yposition Zposition Zrotation Xrotation Yrotation 
						End Site
						{
							OFFSET 0.0 0.0 0.0
						}
					}
				}
				JOINT Shoulder_L
				{
					OFFSET 12.9942 -0.242716 4.98039
					CHANNELS 6 Xposition Yposition Zposition Zrotation Xrotation Yrotation 
					JOINT UpperArm_L
					{
						OFFSET 5.34809 0.0 0.0
						CHANNELS 6 Xposition Yposition Zposition Zrotation Xrotation Yrotation 
						JOINT LowerArm_L
						{
							OFFSET 24.3286 1.87007e-05 0.0
							CHANNELS 6 Xposition Yposition Zposition Zrotation Xrotation Yrotation 
							JOINT Hand_L
							{
								OFFSET 22.2916 0.0 0.0
								CHANNELS 6 Xposition Yposition Zposition Zrotation Xrotation Yrotation 
								End Site
								{
									OFFSET 0.0 0.0 0.0
								}
							}
						}
					}
				}
				JOINT Shoulder_R
				{
					OFFSET 12.9945 -0.242716 -4.98039
					CHANNELS 6 Xposition Yposition Zposition Zrotation Xrotation Yrotation 
					JOINT UpperArm_R
					{
						OFFSET -5.34813 0.0 0.0
						CHANNELS 6 Xposition Yposition Zposition Zrotation Xrotation Yrotation 
						JOINT LowerArm_R
						{
							OFFSET -24.3289 0.000322201 0.0
							CHANNELS 6 Xposition Yposition Zposition Zrotation Xrotation Yrotation 
							JOINT Hand_R
							{
								OFFSET -22.2915 -0.000108084 0.0
								CHANNELS 6 Xposition Yposition Zposition Zrotation Xrotation Yrotation 
								End Site
								{
									OFFSET 0.0 0.0 0.0
								}
							}
						}
					}
				}
			}
		}
		JOINT UpperLeg_L
		{
			OFFSET -2.19248 -6.46944 0.0
			CHANNELS 6 Xposition Yposition Zposition Zrotation Xrotation Yrotation 
			JOINT LowerLeg_L
			{
				OFFSET 39.0811 0.0 -1.23785e-05
				CHANNELS 6 Xposition Yposition Zposition Zrotation Xrotation Yrotation 
				JOINT Foot_L
				{
					OFFSET 40.9854 0.0 -1.26872e-05
					CHANNELS 6 Xposition Yposition Zposition Zrotation Xrotation Yrotation 
					JOINT Toes_L
					{
						OFFSET 11.7543 0.0 0.0
						CHANNELS 6 Xposition Yposition Zposition Zrotation Xrotation Yrotation 
						End Site
						{
							OFFSET 0.0 0.0 0.0
						}
					}
				}
			}
		}
		JOINT UpperLeg_R
		{
			OFFSET -2.19251 6.46944 0.0
			CHANNELS 6 Xposition Yposition Zposition Zrotation Xrotation Yrotation 
			JOINT LowerLeg_R
			{
				OFFSET -39.0811 -0.00228153 -0.0401928
				CHANNELS 6 Xposition Yposition Zposition Zrotation Xrotation Yrotation 
				JOINT Foot_R
				{
					OFFSET -40.9854 0.0 0.0
					CHANNELS 6 Xposition Yposition Zposition Zrotation Xrotation Yrotation 
					JOINT Toes_R
					{
						OFFSET -11.7543 0.0 0.0
						CHANNELS 6 Xposition Yposition Zposition Zrotation Xrotation Yrotation 
						End Site
						{
							OFFSET 0.0 0.0 0.0
						}
					}
				}
			}
		}
	}
}
MOTION
Frames:	4
Frame Time:	0.0333333
0.000000 0.000000 0.000000 0.000000 0.000000 -0.000000 86.160700 88.877800 139.424000 94.418300 -36.036900 6.845620 15.735700 0.000005 -0.000001 69.494400 83.869800 -68.990600 8.984550 -0.406207 -0.000000 3.745520 -4.306760 1.147850 16.377300 -0.000001 -0.000001 2.923820 -16.121700 3.415850 6.456720 -0.000001 -0.000000 6.182260 -20.820800 3.135550 12.994200 -0.242716 4.980390 -89.681000 -1.153940 -74.544100 5.348090 -0.000007 -0.000001 -50.513900 2.341510 -39.962600 24.328600 0.000019 0.000005 2.995140 4.790220 -32.070100 22.291600 -0.000001 0.000005 15.042800 5.515650 -7.176480 12.994500 -0.242716 -4.980390 87.924900 5.992950 -70.861800 -5.348130 -0.000001 -0.000004 -63.478700 11.406500 5.477150 -24.328900 0.000322 -0.000009 1.033640 14.259400 -4.194270 -22.291500 -0.000108 -0.000004 18.665100 5.220070 2.210620 -2.192480 -6.469440 -0.000000 -168.549000 -15.313100 11.183900 39.081100 -0.000007 -0.000012 -0.063355 0.113444 29.182000 40.985400 -0.000006 -0.000013 -11.319700 -1.592480 -61.178300 11.754300 -0.000000 0.000003 -0.039439 -0.257880 -27.168500 -2.192510 6.469440 -0.000001 -171.442000 25.703300 153.857000 -39.081100 -0.002282 -0.040193 0.009429 -0.017181 19.568800 -40.985400 0.000008 0.000006 14.421800 -9.104520 -47.492900 -11.754300 -0.000006 -0.000006 -0.027758 -0.206999 -25.048200
0.000000 0.000000 0.000000 0.000000 0.000000 -0.000000 82.418300 88.508000 142.535000 93.391500 -36.261200 6.956600 15.735700 0.000005 -0.000001 68.515600 83.937300 -67.307100 8.984550 -0.406207 -0.000000 3.574590 -4.479600 2.555180 16.377300 -0.000001 -0.000001 2.716560 -16.777600 3.276270 6.456720 -0.000001 -0.000000 6.277430 -21.539000 2.224930 12.994200 -0.242716 4.980390 -89.760500 -0.849833 -74.258600 5.348090 -0.000007 -0.000001 -53.220200 4.091840 -37.484600 24.328600 0.000019 0.000005 2.427710 3.601030 -34.024400 22.291600 -0.000001 0.000005 15.739500 5.527650 -7.690930 12.994500 -0.242716 -4.980390 87.728500 6.400600 -70.413900 -5.348130 -0.000001 -0.000004 -62.992300 11.194600 5.548590 -24.328900 0.000322 -0.000009 0.652810 15.057200 -2.515660 -22.291500 -0.000108 -0.000004 18.370500 5.196970 2.795720 -2.192480 -6.469440 -0.000000 -166.623000 -13.092000 11.208100 39.081100 -0.000007 -0.000012 -0.007677 0.011275 34.254600 40.985400 -0.000006 -0.000013 -10.832000 -2.595470 -56.498200 11.754300 -0.000000 0.000003 -0.096938 -0.436909 -34.797400 -2.192510 6.469440 -0.000001 -172.444000 22.972400 153.590000 -39.081100 -0.002282 -0.040193 -0.057945 0.111163 28.854300 -40.985400 0.000008 0.000006 11.904000 -11.031100 -52.086000 -11.754300 -0.000006 -0.000006 -0.020975 -0.172633 -23.628100
0.000000 0.000000 0.000000 0.000000 0.000000 -0.000000 78.536500 88.336400 145.456000 92.287600 -37.318800 7.904350 15.735700 0.000005 -0.000001 69.935600 83.651100 -68.044500 8.984550 -0.406207 -0.000000 4.247080 -4.407550 3.943000 16.377300 -0.000001 -0.000001 2.633810 -16.880800 3.494840 6.456720 -0.000001 -0.000000 5.945440 -21.822800 1.743160 12.994200 -0.242716 4.980390 -89.725000 -0.971096 -74.188300 5.348090 -0.000007 -0.000001 -55.966700 7.025440 -33.146300 24.328600 0.000019 0.000005 1.131260 1.503090 -37.002800 22.291600 -0.000001 0.000005 15.463400 5.548060 -8.623990 12.994500 -0.242716 -4.980390 87.741100 6.428640 -70.592900 -5.348130 -0.000001 -0.000004 -63.599200 11.795600 4.603550 -24.328900 0.000322 -0.000009 0.329167 15.607100 -1.227440 -22.291500 -0.000108 -0.000004 16.894900 5.182680 3.149330 -2.192480 -6.469440 -0.000000 -164.829000 -11.753500 10.069000 39.081100 -0.000007 -0.000012 0.114121 -0.129261 41.440000 40.985400 -0.000006 -0.000013 -6.520190 -4.532260 -48.167700 11.754300 -0.000000 0.000003 -0.136520 -0.527409 -38.802900 -2.192510 6.469440 -0.000001 -172.589000 20.752900 156.319000 -39.081100 -0.002282 -0.040193 -0.144549 0.216754 34.296700 -40.985400 0.000008 0.000006 11.147600 -12.807400 -57.747700 -11.754300 -0.000006 -0.000006 -0.018405 -0.158286 -23.037200
0.000000 0.000000 0.000000 0.000000 0.000000 -0.000000 74.877300 88.269700 147.849000 91.184000 -38.810300 8.127700 15.735700 0.000005 -0.000001 71.265500 83.553100 -68.894600 8.984550 -0.406207 -0.000000 4.545820 -4.200660 4.904820 16.377300 -0.000001 -0.000001 2.716900 -16.907700 4.142980 6.456720 -0.000001 -0.000000 6.161990 -21.804700 2.179090 12.994200 -0.242716 4.980390 -89.682700 -1.100870 -73.921100 5.348090 -0.000007 -0.000001 -57.314900 11.655800 -28.573800 24.328600 0.000019 0.000005 -0.138050 -0.164744 -39.962100 22.291600 -0.000001 0.000005 13.426100 5.566690 -9.526960 12.994500 -0.242716 -4.980390 87.666600 6.624770 -70.546500 -5.348130 -0.000001 -0.000004 -64.732600 13.461300 2.673970 -24.328900 0.000322 -0.000009 0.219674 16.276500 -0.787376 -22.291500 -0.000108 -0.000004 14.176500 5.184840 3.096210 -2.192480 -6.469440 -0.000000 -163.713000 -10.660600 5.914520 39.081100 -0.000007 -0.000012 0.236528 -0.197032 50.204800 40.985400 -0.000006 -0.000013 -1.653160 -7.744930 -37.306000 11.754300 -0.000000 0.000003 -0.046936 -0.286674 -28.374800 -2.192510 6.469440 -0.000001 -171.877000 20.573200 159.404000 -39.081100 -0.002282 -0.040193 -0.218823 0.298485 36.654100 -40.985400 0.000008 0.000006 10.234600 -12.618400 -62.302600 -11.754300 -0.000006 -0.000006 -0.016965 -0.149859 -22.690600
